<?xml version="1.0" encoding="utf-8"?>
<!-- Generator: Adobe Illustrator 22.0.1, SVG Export Plug-In . SVG Version: 6.00 Build 0)  -->
<svg version="1.1" id="SyncroSoft" xmlns="http://www.w3.org/2000/svg" xmlns:xlink="http://www.w3.org/1999/xlink" x="0px" y="0px"
	 viewBox="0 0 226 116" style="enable-background:new 0 0 226 116;" xml:space="preserve">
<style type="text/css">
	.st0{enable-background:new    ;}
	.st1{fill:#3A3A3A;}
	.st2{fill:#FF3E46;}
	.st3{fill:#020202;}
	.st4{fill:#FFFFFF;}
</style>
<g id="soft">
	<g class="st0">
		<path class="st1" d="M103.1,98.7v-2.4c2.1,0.9,3.9,1.4,5.4,1.4c1.1,0,2-0.2,2.7-0.7s1.1-1,1.1-1.7c0-0.9-0.9-1.6-2.6-2.1l-2.9-0.9
			c-2.3-0.7-3.4-2-3.4-3.9c0-1.3,0.5-2.4,1.5-3.1s2.5-1.1,4.3-1.1c1.4,0,3,0.2,4.9,0.6V87c-1.8-0.5-3.4-0.8-4.9-0.8
			c-1,0-1.8,0.2-2.4,0.5c-0.6,0.4-0.9,0.8-0.9,1.4c0,0.7,0.7,1.3,2,1.8l3.4,1.2c1.2,0.4,2.1,1,2.7,1.6s1,1.3,1,2.3
			c0,1.4-0.6,2.5-1.7,3.4s-2.7,1.3-4.7,1.3C106.9,99.6,105.1,99.3,103.1,98.7z"/>
		<path class="st1" d="M138.3,99.6c-2.2,0-3.9-0.7-5.1-2.1c-1.2-1.4-1.9-3.3-1.9-5.7c0-2.4,0.6-4.3,1.9-5.7c1.2-1.4,3-2.1,5.1-2.1
			c2.2,0,3.9,0.7,5.1,2.1c1.2,1.4,1.9,3.3,1.9,5.7c0,2.4-0.6,4.3-1.9,5.7C142.2,98.9,140.5,99.6,138.3,99.6z M138.3,97.6
			c1.3,0,2.3-0.5,3-1.5s1.1-2.4,1.1-4.2c0-1.8-0.4-3.2-1.1-4.2c-0.7-1-1.7-1.5-3-1.5s-2.3,0.5-3,1.5s-1.1,2.4-1.1,4.2
			c0,1.8,0.4,3.2,1.1,4.2C136,97.1,137,97.6,138.3,97.6z"/>
		<path class="st1" d="M165.3,99.3V86.8h-4v-2h4v-1.6c0-2.1,0.5-3.6,1.4-4.5c1-0.9,2.6-1.4,4.8-1.4c1.5,0,2.8,0.2,4.1,0.6V80
			c-1.3-0.5-2.6-0.7-3.9-0.7c-1.4,0-2.3,0.3-2.9,0.8c-0.6,0.5-0.8,1.4-0.8,2.8v1.9h7.1v2H168v12.5L165.3,99.3L165.3,99.3z"/>
		<path class="st1" d="M203.6,99.2c-1.3,0.2-2.7,0.4-3.9,0.4c-2.2,0-3.7-0.4-4.5-1.2c-0.8-0.8-1.2-2.3-1.2-4.5v-7.2h-3.7v-2h3.7
			v-3.2h2.7v3.2h6.6v2h-6.6v7.6c0,0.8,0.1,1.4,0.2,1.8c0.1,0.3,0.3,0.6,0.7,0.8c0.6,0.4,1.5,0.6,2.7,0.6c1.1,0,2.2-0.1,3.3-0.4V99.2
			L203.6,99.2z"/>
	</g>
</g>
<g id="Square">
	<g>
		<rect x="18.5" y="22.5" transform="matrix(0.26 -0.9656 0.9656 0.26 -15.6518 92.0201)" class="st2" width="67.4" height="67.4"/>
	</g>
</g>
<g id="s">
	<g>
		<g class="st0">
			<path class="st3" d="M6.5,67.3v-5.5c4.7,2.1,8.8,3.1,12.3,3.1c2.5,0,4.5-0.5,6.2-1.5c1.6-1,2.4-2.3,2.4-3.8c0-2-1.9-3.6-5.8-4.8
				L15,52.6c-5.1-1.7-7.7-4.6-7.7-8.8c0-3.1,1.2-5.4,3.5-7.1c2.3-1.7,5.6-2.5,9.8-2.5c3.2,0,6.8,0.5,11,1.5v5c-4-1.2-7.7-1.8-11-1.8
				c-2.2,0-4,0.4-5.4,1.2c-1.3,0.8-2,1.9-2,3.3c0,1.7,1.5,3,4.6,4.1l7.7,2.7c2.8,1,4.8,2.2,6.1,3.6c1.2,1.4,1.8,3.2,1.8,5.4
				c0,3.2-1.3,5.7-3.9,7.6s-6.2,2.8-10.6,2.8C15,69.5,10.9,68.8,6.5,67.3z"/>
		</g>
	</g>
</g>
<g>
	<g class="st0">
		<path class="st3" d="M74.8,68.7V34.9h6.1v6.3c2.8-4.7,6.6-7.1,11.5-7.1c6.4,0,9.6,3.8,9.6,11.4v23.1h-6.1V47.3
			c0-2.6-0.4-4.5-1.2-5.6c-0.8-1.1-2.2-1.7-4.1-1.7c-3.1,0-6.3,2.2-9.6,6.6v22.1H74.8z"/>
		<path class="st3" d="M141.7,67.6c-3.6,1.2-7.2,1.9-10.8,1.9c-5.9,0-10.4-1.5-13.6-4.6s-4.8-7.4-4.8-13.1c0-5.5,1.6-9.9,4.7-13
			s7.5-4.7,13.1-4.7c3.6,0,7.1,0.5,10.8,1.6v5.1c-4-1.4-7.4-2.1-10.2-2.1c-3.7,0-6.6,1.2-8.7,3.5s-3.2,5.5-3.2,9.5
			c0,4.1,1.1,7.3,3.4,9.6c2.2,2.3,5.3,3.5,9.3,3.5c3,0,6.3-0.7,10-2.1V67.6L141.7,67.6z"/>
		<path class="st3" d="M155.3,68.7V34.9h6.1v6.3c3.1-4.7,7.3-7.1,12.5-7.1c1.8,0,3.9,0.3,6.3,0.8v9.6h-4.6v-4.7
			c-0.9-0.2-1.7-0.3-2.5-0.3c-2.3,0-4.4,0.5-6.2,1.6s-3.6,2.9-5.5,5.6v22H155.3z"/>
		<path class="st3" d="M203.2,69.5c-4.9,0-8.8-1.6-11.7-4.7s-4.2-7.5-4.2-13s1.4-9.8,4.3-12.9c2.8-3.1,6.7-4.7,11.6-4.7
			c4.9,0,8.8,1.6,11.7,4.7c2.8,3.1,4.2,7.4,4.2,12.9s-1.4,9.8-4.2,13C212,67.9,208.2,69.5,203.2,69.5z M203.2,64.9
			c2.9,0,5.2-1.2,6.9-3.5s2.5-5.5,2.5-9.6s-0.8-7.3-2.5-9.6s-4-3.5-6.9-3.5s-5.2,1.2-6.9,3.5s-2.5,5.5-2.5,9.6s0.8,7.3,2.5,9.6
			S200.3,64.9,203.2,64.9z"/>
	</g>
</g>
<g id="Y">
	<g>
		<g>
			<path class="st4" d="M65.9,34.9c-0.5-0.6-1.2-0.9-2-0.9c-0.7,0-1.2,0.2-1.6,0.7c-0.4,0.4-0.7,1-0.7,1.6c0,0.7,0.2,1.8,0.6,3.4
				c0.4,1.4,0.6,2.6,0.6,3.4c0,4.2-2,9.8-6,16.8c0-1.1,0.1-1.9,0.1-2.4c0-4-0.7-8.2-2.1-12.4c-1.4-4.3-3.2-7.7-5.2-10.2
				c-0.4-0.5-0.9-0.8-1.4-0.8s-1,0.1-1.6,0.4c-1,0.5-2.8,1.6-5.4,3.2l-2.6,1.7l1.2,1.6c2.1-1.5,3.8-2.3,4.9-2.3c1,0,1.9,0.6,2.8,1.8
				c1.7,2.3,3.1,5.7,4,10.1c1,4.4,1.4,8.2,1.4,11.4c0,2.2-0.6,4.5-1.9,6.7c-1.3,2.2-3,4.1-5.2,5.7c-1.6,1.2-3.1,1.7-4.5,1.7
				c-0.5,0-1.6-0.1-3-0.5c-1.4-0.3-2.5-0.4-3.3-0.4c-1,0-1.9,0.3-2.5,0.7c-0.6,0.5-0.9,1.1-0.9,1.8c0,0.8,0.4,1.4,1.2,2
				s2,0.8,3.5,0.8c2,0,4.2-0.5,6.5-1.6s4.7-2.8,7.1-5.2c2.5-2.4,5.2-6.2,8.2-11.2s5.2-9.7,6.5-14.1c1.4-4.4,2.1-8,2.1-10.9
				C66.6,36.4,66.4,35.5,65.9,34.9z"/>
		</g>
	</g>
</g>
</svg>
